<svg width="50" height="50" viewBox="0 0 50 50" fill="none" xmlns="http://www.w3.org/2000/svg">
<circle cx="25" cy="25" r="25" fill="#D8C9BC"/>
<path d="M24.9209 18.8359C21.2172 18.8359 18.1484 21.8518 18.1484 25.6084C18.1484 29.365 21.1643 32.3809 24.9209 32.3809C28.6775 32.3809 31.6934 29.3121 31.6934 25.6084C31.6934 21.9047 28.6246 18.8359 24.9209 18.8359ZM24.9209 29.947C22.54 29.947 20.5823 27.9894 20.5823 25.6084C20.5823 23.2275 22.54 21.2698 24.9209 21.2698C27.3019 21.2698 29.2596 23.2275 29.2596 25.6084C29.2596 27.9894 27.3019 29.947 24.9209 29.947Z" fill="black"/>
<path d="M31.9572 20.2116C32.8047 20.2116 33.4916 19.5246 33.4916 18.6772C33.4916 17.8298 32.8047 17.1428 31.9572 17.1428C31.1098 17.1428 30.4229 17.8298 30.4229 18.6772C30.4229 19.5246 31.1098 20.2116 31.9572 20.2116Z" fill="black"/>
<path d="M35.9258 14.709C34.5501 13.2804 32.5925 12.5397 30.3703 12.5397H19.4708C14.8676 12.5397 11.7988 15.6085 11.7988 20.2116V31.0582C11.7988 33.3333 12.5396 35.291 14.0211 36.7196C15.4496 38.0952 17.3544 38.7831 19.5237 38.7831H30.3173C32.5925 38.7831 34.4972 38.0423 35.8729 36.7196C37.3015 35.3439 38.0422 33.3862 38.0422 31.1111V20.2116C38.0422 17.9894 37.3015 16.0846 35.9258 14.709ZM35.7142 31.1111C35.7142 32.7513 35.1322 34.0741 34.1798 34.9735C33.2274 35.873 31.9046 36.3492 30.3173 36.3492H19.5237C17.9364 36.3492 16.6136 35.873 15.6613 34.9735C14.7089 34.0212 14.2327 32.6984 14.2327 31.0582V20.2116C14.2327 18.6243 14.7089 17.3016 15.6613 16.3492C16.5607 15.4497 17.9364 14.9735 19.5237 14.9735H30.4232C32.0105 14.9735 33.3332 15.4497 34.2856 16.4021C35.1851 17.3545 35.7142 18.6772 35.7142 20.2116V31.1111Z" fill="black"/>
</svg>
