<svg width="32" height="58" viewBox="0 0 32 58" fill="none" xmlns="http://www.w3.org/2000/svg">
<path d="M0.576 36.5V36.308H4.096V12.692H0.576V12.5H12.896V12.692H9.072V36.308H12.896V36.5H0.576Z" fill="#EFEFEF"/>
<path d="M20.904 44.98C19.6987 44.98 18.6533 44.7827 17.768 44.388C16.8827 43.9933 16.12 43.4653 15.48 42.804L12.568 44.82H12.392V37.3H12.6C12.8987 38.2387 13.272 39.1507 13.72 40.036C14.1787 40.9213 14.728 41.7213 15.368 42.436C16.0187 43.1507 16.7813 43.7213 17.656 44.148C18.5413 44.564 19.5707 44.772 20.744 44.772C21.768 44.772 22.648 44.5693 23.384 44.164C24.12 43.7587 24.6853 43.1987 25.08 42.484C25.4747 41.7587 25.672 40.932 25.672 40.004C25.672 39.1293 25.4373 38.3987 24.968 37.812C24.5093 37.2253 23.896 36.724 23.128 36.308C22.36 35.8813 21.512 35.476 20.584 35.092C19.6667 34.708 18.744 34.2973 17.816 33.86C16.8987 33.412 16.056 32.8733 15.288 32.244C14.5307 31.6147 13.9173 30.8467 13.448 29.94C12.9787 29.0227 12.744 27.9027 12.744 26.58C12.744 25.2467 13.0747 24.1053 13.736 23.156C14.408 22.196 15.2827 21.46 16.36 20.948C17.4373 20.436 18.6 20.18 19.848 20.18C20.808 20.18 21.688 20.3347 22.488 20.644C23.2987 20.9533 24.0187 21.412 24.648 22.02L27.48 20.18H27.656V27.38H27.448C27.0213 25.9293 26.4613 24.6813 25.768 23.636C25.0853 22.5907 24.264 21.7907 23.304 21.236C22.344 20.6813 21.2507 20.404 20.024 20.404C18.7333 20.404 17.7573 20.7667 17.096 21.492C16.4347 22.2173 16.104 23.124 16.104 24.212C16.104 24.9907 16.3333 25.652 16.792 26.196C17.2613 26.74 17.8747 27.22 18.632 27.636C19.3893 28.052 20.2213 28.4627 21.128 28.868C22.0453 29.2627 22.9573 29.7 23.864 30.18C24.7813 30.6493 25.6187 31.2093 26.376 31.86C27.1333 32.5107 27.7413 33.3053 28.2 34.244C28.6693 35.172 28.904 36.2973 28.904 37.62C28.904 39.1133 28.552 40.4093 27.848 41.508C27.144 42.6067 26.184 43.46 24.968 44.068C23.7627 44.676 22.408 44.98 20.904 44.98Z" fill="#EFEFEF"/>
</svg>
