<svg width="50" height="50" viewBox="0 0 50 50" fill="none" xmlns="http://www.w3.org/2000/svg">
<circle cx="25" cy="25" r="25" fill="#D8C9BC"/>
<g clip-path="url(#clip0_156_176)">
<path d="M20.3127 25.8086L30.8479 35.0782C30.9697 35.1859 31.1173 35.2602 31.2765 35.2937C31.4356 35.3271 31.6007 35.3186 31.7555 35.2689C31.9104 35.2193 32.0497 35.1302 32.1597 35.0105C32.2697 34.8908 32.3467 34.7445 32.3831 34.586L36.7893 15.3438C36.8263 15.1781 36.8175 15.0054 36.764 14.8443C36.7105 14.6832 36.6142 14.5396 36.4855 14.4289C36.3567 14.3182 36.2004 14.2446 36.033 14.2158C35.8657 14.1871 35.6937 14.2043 35.5354 14.2657L13.9026 22.7618C13.0354 23.1016 13.1526 24.3672 14.0667 24.5547L20.3127 25.8086Z" stroke="black" stroke-width="1.875" stroke-linecap="round" stroke-linejoin="round"/>
<path d="M20.3125 25.8086L36.2617 14.2891" stroke="black" stroke-width="1.875" stroke-linecap="round" stroke-linejoin="round"/>
<path d="M25.5742 30.4375L21.918 34.0938C21.7875 34.2262 21.6207 34.3169 21.4386 34.3543C21.2565 34.3917 21.0674 34.3741 20.8953 34.3037C20.7232 34.2334 20.5759 34.1135 20.4721 33.9592C20.3684 33.805 20.3128 33.6234 20.3125 33.4375V25.8086" stroke="black" stroke-width="1.875" stroke-linecap="round" stroke-linejoin="round"/>
</g>
<defs>
<clipPath id="clip0_156_176">
<rect width="30" height="30" fill="white" transform="translate(10 10)"/>
</clipPath>
</defs>
</svg>
