<svg width="50" height="50" viewBox="0 0 50 50" fill="none" xmlns="http://www.w3.org/2000/svg">
<circle cx="25" cy="25" r="25" fill="#D8C9BC"/>
<path fill-rule="evenodd" clip-rule="evenodd" d="M34.5428 15.6694C32.0816 13.2053 28.8085 11.8477 25.3213 11.8463C18.136 11.8463 12.2879 17.6939 12.2851 24.8814C12.2841 27.1791 12.8844 29.4217 14.0252 31.3986L12.1758 38.1537L19.0864 36.341C20.9905 37.3795 23.1343 37.9269 25.3161 37.9277H25.3214C25.3209 37.9277 25.3218 37.9277 25.3214 37.9277C32.5059 37.9277 38.3545 32.0795 38.3575 24.8918C38.3588 21.4086 37.004 18.1333 34.5428 15.6694ZM25.3213 35.7261H25.3169C23.3728 35.7253 21.4658 35.203 19.8022 34.2158L19.4066 33.981L15.3057 35.0567L16.4004 31.0584L16.1427 30.6484C15.0581 28.9233 14.4853 26.9294 14.4862 24.8822C14.4885 18.9082 19.3492 14.048 25.3257 14.048C28.2197 14.0489 30.9402 15.1775 32.9859 17.2255C35.0316 19.2735 36.1575 21.9958 36.1564 24.8909C36.1539 30.8654 31.2934 35.7261 25.3213 35.7261Z" fill="black"/>
<path fill-rule="evenodd" clip-rule="evenodd" d="M31.2645 27.6112C30.9388 27.4482 29.3373 26.6603 29.0388 26.5515C28.7402 26.4428 28.523 26.3885 28.3059 26.7145C28.0888 27.0406 27.4645 27.7743 27.2745 27.9917C27.0845 28.209 26.8945 28.2364 26.5688 28.0732C26.2431 27.9101 25.1936 27.5662 23.9494 26.4565C22.9811 25.5928 22.3274 24.5262 22.1373 24.2C21.9473 23.874 22.1171 23.6977 22.2802 23.5353C22.4267 23.3893 22.6059 23.1548 22.7688 22.9646C22.9317 22.7745 22.9859 22.6385 23.0945 22.4213C23.2031 22.2038 23.1489 22.0136 23.0674 21.8506C22.9859 21.6876 22.3345 20.0843 22.0631 19.432C21.7987 18.7969 21.5302 18.883 21.3302 18.8729C21.1405 18.8634 20.923 18.8615 20.7059 18.8615C20.4888 18.8615 20.1359 18.943 19.8374 19.269C19.5388 19.5951 18.6973 20.3832 18.6973 21.9863C18.6973 23.5897 19.8644 25.1385 20.0273 25.3558C20.1901 25.5733 22.3242 28.8633 25.5917 30.2742C26.3688 30.6098 26.9755 30.8102 27.4486 30.9603C28.2289 31.2083 28.939 31.1732 29.5002 31.0894C30.126 30.9959 31.4274 30.3014 31.6988 29.5407C31.9702 28.7797 31.9702 28.1275 31.8887 27.9917C31.8073 27.8558 31.5902 27.7743 31.2645 27.6112Z" fill="black"/>
</svg>
